# xmcd CD database file
#
# Track frame offsets:
#	183
#	11740
#	26080
#	44095
#	55213
#	69468
#	83785
#	97678
#	108400
#	128875
#	138938
#	151828
#
# Disc length: 2231 seconds
#
# Revision: 1
# Processed by: cddbd v1.5.1PL2 Copyright (c) Steve Scherf et al.
# Submitted via: Feurio! 1.68 - http://www.feurio.com
#
DISCID=9808b50c
DTITLE=Various Artist - Heartbreaker - Connie Francis Und G尿te
DYEAR=1900
DGENRE=Oldies
TTITLE0=Connie Francis - Everybody압 Somebody압 Fool
TTITLE1=Billy Vaughn And His Orchestra - Magic Moments
TTITLE2=Demis Roussos - Good Bye My Love Good Bye
TTITLE3=Connie Francis - My Heart Has A Mind Of It압 Own
TTITLE4=Andre Lamberz - Green Green Grass Of Home
TTITLE5=Mike Johnson - Dusty Boots
TTITLE6=Engelbert - Red Sails In The Sunset
TTITLE7=Connie Francis - My Happiness
TTITLE8=Tom Jones - The Joung New Mexican Puppeteer
TTITLE9=Connie Francis - Who압 Sorry Now
TTITLE10=Manny Sax - Little Bianca
TTITLE11=Roger Whittaker - The Last Farewell
EXTD=
EXTT0=
EXTT1=
EXTT2=
EXTT3=
EXTT4=
EXTT5=
EXTT6=
EXTT7=
EXTT8=
EXTT9=
EXTT10=
EXTT11=
PLAYORDER=
